<svg width="57" height="58" viewBox="0 0 57 58" fill="none" xmlns="http://www.w3.org/2000/svg">
<path d="M46 15L37 9L46 1V15Z" fill="white"/>
<path d="M27 32L26.7515 31.9724L26.75 31.9862V32H27ZM28 23L27.792 22.8613L27.7582 22.9119L27.7515 22.9724L28 23ZM36 11L36.1416 10.794L35.9327 10.6503L35.792 10.8613L36 11ZM52 22L52.0542 22.244L52.615 22.1194L52.1416 21.794L52 22ZM47.5 23L47.4458 22.756L47.4427 23.2434L47.5 23ZM56 25L56.0985 25.2298L56.7966 24.9306L56.0573 24.7566L56 25ZM49 28L48.9015 27.7702L48.3468 28.008L48.9072 28.2321L49 28ZM51.5 29L51.6222 29.2181L52.0789 28.9623L51.5928 28.7679L51.5 29ZM39 36L38.7628 35.9209L38.755 35.9444L38.7519 35.969L39 36ZM37 52L37.1214 52.2185L37.2323 52.1569L37.2481 52.031L37 52ZM28 57V57.25H28.0648L28.1214 57.2185L28 57ZM27 57H26.75V57.25H27V57ZM37 9L36.8339 8.81315L36.5918 9.02834L36.8613 9.20801L37 9ZM46 15L45.8613 15.208L46.25 15.4671V15H46ZM46 1H46.25V0.443289L45.8339 0.813148L46 1ZM27.2485 32.0276L28.2485 23.0276L27.7515 22.9724L26.7515 31.9724L27.2485 32.0276ZM28.208 23.1387L36.208 11.1387L35.792 10.8613L27.792 22.8613L28.208 23.1387ZM35.8584 11.206L51.8584 22.206L52.1416 21.794L36.1416 10.794L35.8584 11.206ZM51.9458 21.756L47.4458 22.756L47.5542 23.244L52.0542 22.244L51.9458 21.756ZM47.4427 23.2434L55.9427 25.2434L56.0573 24.7566L47.5573 22.7566L47.4427 23.2434ZM55.9015 24.7702L48.9015 27.7702L49.0985 28.2298L56.0985 25.2298L55.9015 24.7702ZM48.9072 28.2321L51.4072 29.2321L51.5928 28.7679L49.0928 27.7679L48.9072 28.2321ZM51.3778 28.7819L38.8778 35.7819L39.1222 36.2181L51.6222 29.2181L51.3778 28.7819ZM38.7519 35.969L36.7519 51.969L37.2481 52.031L39.2481 36.031L38.7519 35.969ZM36.8786 51.7815L27.8786 56.7815L28.1214 57.2185L37.1214 52.2185L36.8786 51.7815ZM28 56.75H27V57.25H28V56.75ZM39.2372 36.0791L39.7372 34.5791L39.2628 34.4209L38.7628 35.9209L39.2372 36.0791ZM36.8613 9.20801L45.8613 15.208L46.1387 14.792L37.1387 8.79199L36.8613 9.20801ZM46.25 15V1H45.75V15H46.25ZM45.8339 0.813148L36.8339 8.81315L37.1661 9.18685L46.1661 1.18685L45.8339 0.813148ZM26.75 32V57H27.25V32H26.75Z" fill="black"/>
<circle cx="27.5" cy="30.5" r="27.5" fill="#319690"/>
<path d="M21 50H27V54.5L22 52L21 50Z" fill="#FFE8D4" stroke="black" stroke-width="0.5"/>
<path d="M28 23L27 32V32.5V57H28L37 52L39 36L52 29L49 28L56 25L48 23L52 22L36 11L28 23Z" fill="white"/>
<path d="M46 1L37 9L46 15V1Z" fill="white"/>
<path d="M39 36L52 29L49 28L56 25L48 23L52 22L36 11L28 23L27 32V32.5V57H28L37 52L39 36ZM39 36L39.5 34.5M37 9L46 1V15L37 9Z" stroke="white" stroke-width="0.5"/>
<path d="M30.5 49H27V52L30 51L30.5 49Z" fill="#8D8D8D" stroke="black" stroke-width="0.5"/>
<path d="M34.4444 27L30 30L33.3333 29H37.7778L40 25L34.4444 27Z" fill="#00FFFF" stroke="#00FFFF" stroke-width="0.5"/>
<path d="M30 56L27 55V52M27 52V49H30.5L30 51L27 52Z" stroke="#8D8D8D" stroke-width="0.5"/>
<path d="M13 54L27 57V54.5L22 52L21 50L18 45L10 42L13 54Z" fill="#8D8D8D"/>
<path d="M27 57L26.9476 57.2445L27.25 57.3092V57H27ZM13 54L12.7588 54.0658L12.7988 54.2126L12.9476 54.2445L13 54ZM10 43L9.7534 43.0411L9.75548 43.0536L9.75881 43.0658L10 43ZM15 11L15.1035 11.2276L15 11ZM27 54.5H27.25V54.3455L27.1118 54.2764L27 54.5ZM22 52L21.7764 52.1118L21.8137 52.1863L21.8882 52.2236L22 52ZM21 50L21.2236 49.8882L21.2193 49.8796L21.2144 49.8714L21 50ZM18 45L18.2144 44.8714L18.1695 44.7966L18.0878 44.7659L18 45ZM10 42L10.0878 41.7659L9.64199 41.5987L9.75746 42.0606L10 42ZM27.0524 56.7555L13.0524 53.7555L12.9476 54.2445L26.9476 57.2445L27.0524 56.7555ZM13.2412 53.9342L10.2412 42.9342L9.75881 43.0658L12.7588 54.0658L13.2412 53.9342ZM10.2466 42.9589C10.0817 41.9698 9.75 39.2838 9.75 36.5H9.25C9.25 39.3162 9.58492 42.0302 9.7534 43.0411L10.2466 42.9589ZM9.75 36.5V19H9.25V36.5H9.75ZM9.75 19C9.75 17.2332 10.8182 13.1754 15.1035 11.2276L14.8965 10.7724C10.3818 12.8246 9.25 17.1001 9.25 19H9.75ZM15.1035 11.2276C17.8116 9.99662 20.7752 9.624 23.076 9.49964C24.227 9.43742 25.2021 9.43759 25.9041 9.42181C26.2502 9.41403 26.539 9.40224 26.7433 9.37472C26.8429 9.36131 26.9425 9.34179 27.0232 9.30756C27.0872 9.28045 27.25 9.19497 27.25 9H26.75C26.75 8.86753 26.862 8.83284 26.8281 8.84722C26.8109 8.8545 26.7655 8.86721 26.6766 8.87919C26.5039 8.90245 26.242 8.91409 25.8928 8.92194C25.2042 8.93741 24.2105 8.93758 23.049 9.00036C20.7248 9.126 17.6884 9.50338 14.8965 10.7724L15.1035 11.2276ZM26.75 9V31.5H27.25V9H26.75ZM27.1118 54.2764L22.1118 51.7764L21.8882 52.2236L26.8882 54.7236L27.1118 54.2764ZM22.2236 51.8882L21.2236 49.8882L20.7764 50.1118L21.7764 52.1118L22.2236 51.8882ZM21.2144 49.8714L18.2144 44.8714L17.7856 45.1286L20.7856 50.1286L21.2144 49.8714ZM18.0878 44.7659L10.0878 41.7659L9.91222 42.2341L17.9122 45.2341L18.0878 44.7659ZM26.75 54.5V57H27.25V54.5H26.75ZM9.75746 42.0606L12.7575 54.0606L13.2425 53.9394L10.2425 41.9394L9.75746 42.0606Z" fill="#8D8D8D"/>
<path d="M27 50H21L20 48L27 47V48V50Z" fill="#8F8E8E" stroke="#8C8C8C" stroke-width="0.5"/>
<path d="M20 48L27 47V7.5H23C21.6667 7.66667 18.6 8.2 17 9C15.4 9.8 14.3333 10.6667 14 11C13.6667 11.1667 12.6 12 11 14C9.4 16 9 19.5 9 21V32C9 33.3333 9.1 36.6 9.5 39L10 42L18 45L20 48Z" fill="#FFE8D4" stroke="#FFE8D4" stroke-width="0.5"/>
<path d="M27 47H27.25V46.7117L26.9646 46.7525L27 47ZM20 48L19.792 48.1387L19.8794 48.2698L20.0354 48.2475L20 48ZM18 45L18.208 44.8613L18.1633 44.7942L18.0878 44.7659L18 45ZM10 42L9.75485 42.049L9.78211 42.1853L9.91222 42.2341L10 42ZM26.9646 46.7525L19.9646 47.7525L20.0354 48.2475L27.0354 47.2475L26.9646 46.7525ZM20.208 47.8613L18.208 44.8613L17.792 45.1387L19.792 48.1387L20.208 47.8613ZM18.0878 44.7659L10.0878 41.7659L9.91222 42.2341L17.9122 45.2341L18.0878 44.7659ZM10.2451 41.951C9.91382 40.2944 9.25 35.9783 9.25 32H8.75C8.75 36.0217 9.41951 40.3723 9.75485 42.049L10.2451 41.951ZM26.75 47V50H27.25V47H26.75Z" fill="#8B8B8B"/>
<path d="M9 32C9 34.5 9.2 40.2 10 43" stroke="#8D8D8D" stroke-width="0.5"/>
<path d="M9 19.04V32C9.66667 31.28 11 29.084 11 26.06C11 23.036 11.6667 20.12 12 19.04C12.3333 17.6 13.8 14.504 17 13.64C20.2 12.776 25 12.56 27 12.56L28 5L25 7.16V5L20 8.24V6.08L15 9.32V8.24C14.3333 8.6 12.6 9.968 11 12.56C9.4 15.152 9 17.96 9 19.04Z" fill="#8D8D8D" stroke="#8D8D8D" stroke-width="0.5"/>
</svg>
